# xmcd
#
# Track frame offsets: 
#        150
#        20660
#        39172
#        53697
#        67922
#        86025
#        110760
#        125067
#        134775
#        150035
#        173435
#
# Disc length: 2497 seconds
#
# Revision: 2
# Processed by: cddbd v1.5.2PL0 Copyright (c) Steve Scherf et al.
# Submitted via: ExactAudioCopy v0.99pb4
#
DISCID=8909bf0b
DTITLE=Shooter Jennings - Electric Rodeo
DYEAR=1900
DGENRE=Country
TTITLE0=Electric Rodeo
TTITLE1=Gone to Carolina
TTITLE2=Some Rowdy Women
TTITLE3=The Song is Still Slipping Away
TTITLE4=Hair of the Dog
TTITLE5=Little White Lines
TTITLE6=Alligator Chomp
TTITLE7=Mainifesto No. 2
TTITLE8=Aviators
TTITLE9=Bad Magick
TTITLE10=It Ain't Easy
EXTD=featuring:  Leroy Powell, Ted Russell Kamp, and Bryan Keeling
EXTT0=
EXTT1=
EXTT2=
EXTT3=
EXTT4=
EXTT5=
EXTT6=
EXTT7=
EXTT8=
EXTT9=
EXTT10=
PLAYORDER=
